<?xml version="1.0" standalone="no"?>
<!DOCTYPE svg PUBLIC "-//W3C//DTD SVG 20010904//EN"
 "http://www.w3.org/TR/2001/REC-SVG-20010904/DTD/svg10.dtd">
<svg version="1.0" xmlns="http://www.w3.org/2000/svg"
 width="725.000000pt" height="725.000000pt" viewBox="0 0 725.000000 725.000000"
 preserveAspectRatio="xMidYMid meet">
<metadata>
Created by potrace 1.14, written by Peter Selinger 2001-2017
</metadata>
<g transform="translate(0.000000,725.000000) scale(0.100000,-0.100000)"
fill="#000000" stroke="none">
<path d="M3619 7203 c0 -16 -2 -35 -3 -43 -2 -8 -7 -51 -10 -95 -4 -44 -9 -98
-11 -120 -7 -61 -23 -286 -31 -415 -4 -63 -8 -126 -9 -140 -2 -14 -6 -97 -10
-185 -3 -88 -8 -178 -10 -200 -18 -195 -27 -1170 -12 -1429 16 -291 53 -435
113 -444 44 -7 84 125 103 343 11 119 11 984 0 1205 -4 85 -10 214 -13 285 -8
160 -12 235 -31 540 -16 251 -16 259 -40 528 -8 92 -15 174 -15 182 0 28 -20
15 -21 -12z"/>
<path d="M2315 6835 c-99 -54 -160 -183 -186 -400 -26 -213 30 -566 132 -821
111 -280 322 -613 606 -953 151 -181 542 -566 558 -550 25 25 44 411 33 675
-20 504 -115 937 -281 1286 -205 432 -529 760 -764 775 -50 3 -76 0 -98 -12z"/>
<path d="M4825 6817 c-50 -17 -126 -57 -184 -96 -59 -40 -209 -187 -274 -269
-286 -360 -470 -874 -539 -1507 -15 -139 -17 -774 -2 -818 l9 -28 76 63 c201
167 460 433 631 648 331 415 509 756 592 1131 87 391 41 725 -115 851 -44 35
-129 46 -194 25z"/>
<path d="M1151 6204 c132 -192 866 -1070 1243 -1488 191 -212 478 -504 586
-597 76 -66 198 -149 218 -149 16 0 16 -1 -28 -71 l-34 -55 -59 71 c-165 199
-501 511 -750 698 -428 320 -771 479 -1170 543 -131 21 -390 15 -487 -11 -173
-47 -250 -122 -250 -243 0 -123 71 -252 227 -413 263 -271 625 -459 1116 -578
353 -86 795 -126 1145 -102 97 6 187 14 199 17 l22 6 -20 -62 c-10 -34 -19
-70 -19 -81 0 -18 -2 -18 -27 -6 -16 8 -59 20 -98 27 -38 7 -79 14 -90 16 -55
10 -298 19 -530 19 -254 0 -773 -13 -784 -19 -3 -2 -77 -7 -165 -11 -87 -4
-168 -8 -180 -10 -11 -2 -77 -6 -146 -10 -69 -3 -143 -8 -165 -10 -22 -3 -130
-12 -240 -20 -110 -9 -218 -18 -240 -20 -22 -3 -87 -9 -145 -15 -201 -20 -283
-30 -277 -36 7 -7 225 -25 487 -39 52 -3 122 -7 155 -10 33 -2 123 -7 200 -10
77 -4 160 -8 185 -10 137 -11 616 -20 1050 -20 544 1 781 16 931 59 l76 22 12
-60 c15 -74 51 -146 101 -207 l39 -46 -55 -23 c-179 -74 -649 -501 -1250
-1135 -436 -460 -956 -1041 -904 -1010 15 9 301 235 310 245 3 3 70 59 150
125 80 66 147 122 150 125 3 3 50 43 105 90 778 657 1448 1307 1521 1475 7 16
15 38 18 47 5 15 14 13 83 -20 77 -37 79 -37 203 -37 124 0 126 0 203 37 105
50 185 130 235 235 37 77 37 79 37 203 0 124 0 126 -37 203 -63 131 -177 227
-313 263 -117 32 -276 9 -375 -54 l-46 -29 -18 44 c-70 169 -355 497 -921
1060 -434 431 -866 840 -1111 1050 -106 92 -113 95 -73 37z"/>
<path d="M6205 6128 c-53 -30 -709 -571 -915 -754 -19 -17 -98 -87 -175 -154
-634 -557 -1057 -984 -1131 -1144 -28 -60 -29 -70 -8 -90 19 -19 48 -14 125
25 66 33 251 175 364 278 44 41 109 101 145 134 203 186 686 679 1035 1058 64
69 429 474 464 514 66 77 122 145 119 145 -2 0 -12 -6 -23 -12z"/>
<path d="M6190 5103 c-315 -32 -640 -138 -933 -304 -137 -78 -365 -235 -513
-353 -208 -166 -566 -525 -612 -612 -11 -20 -8 -22 36 -28 109 -14 575 -19
744 -7 642 46 1078 166 1426 394 194 126 370 297 452 437 103 176 93 305 -30
386 -109 73 -352 110 -570 87z"/>
<path d="M4899 3745 c-3 -2 -61 -5 -129 -6 -263 -4 -531 -41 -597 -80 -90 -55
-26 -107 170 -137 92 -13 194 -16 577 -17 256 0 537 3 625 7 189 9 800 46 865
53 25 2 83 7 130 10 252 18 680 62 689 71 10 10 -15 13 -244 28 -307 21 -345
24 -490 31 -66 3 -145 8 -175 10 -30 2 -138 7 -240 10 -102 4 -210 8 -240 11
-76 6 -936 15 -941 9z"/>
<path d="M2235 3425 c-497 -47 -820 -128 -1120 -280 -225 -113 -364 -213 -514
-370 -127 -132 -195 -248 -207 -351 -9 -75 1 -115 42 -162 150 -176 639 -190
1106 -32 490 166 1008 523 1423 980 60 65 121 138 137 162 l29 43 -33 8 c-60
15 -710 17 -863 2z"/>
<path d="M4258 3431 c-69 -3 -129 -9 -133 -12 -12 -13 117 -171 266 -324 229
-235 420 -399 636 -549 444 -306 890 -467 1293 -469 253 -1 417 53 491 162 20
29 24 47 24 111 0 72 -3 84 -47 171 -133 266 -506 553 -908 698 -418 150
-1098 239 -1622 212z"/>
<path d="M3961 3291 c-21 -14 -7 -74 34 -143 44 -74 197 -263 346 -428 291
-321 1259 -1256 1578 -1525 l25 -20 -21 34 c-37 60 -623 786 -663 821 -3 3
-57 66 -120 140 -264 311 -474 541 -756 824 -147 149 -260 244 -334 281 -53
27 -67 30 -89 16z"/>
<path d="M3340 3072 c-98 -73 -473 -449 -575 -575 -299 -369 -507 -744 -605
-1093 -118 -419 -92 -826 59 -956 74 -63 167 -62 298 2 95 46 141 79 240 173
182 173 331 401 447 684 159 388 247 968 233 1533 -4 129 -10 247 -14 262 l-8
27 -75 -57z"/>
<path d="M3597 3108 c-40 -22 -70 -147 -87 -360 -11 -135 -15 -861 -6 -1005 3
-43 8 -150 11 -238 3 -88 8 -178 10 -200 2 -22 7 -103 10 -180 3 -77 8 -162
10 -190 3 -27 7 -87 10 -132 13 -212 25 -365 40 -548 10 -105 27 -250 30 -254
2 -2 6 7 9 20 6 27 42 464 51 609 3 52 7 129 10 170 9 136 14 233 21 385 3 83
9 236 14 340 11 267 5 1116 -10 1255 -14 144 -34 239 -59 289 -22 43 -39 53
-64 39z"/>
<path d="M3816 3093 c-34 -176 -32 -744 4 -1013 25 -192 52 -327 97 -495 45
-167 79 -255 168 -440 116 -240 236 -408 408 -571 214 -204 399 -250 507 -128
145 166 167 556 55 971 -104 382 -379 835 -771 1269 -153 170 -431 434 -457
434 -3 0 -8 -12 -11 -27z"/>
</g>
</svg>
